<svg xmlns="http://www.w3.org/2000/svg" viewBox="0 0 320 390" role="img" aria-labelledby="title desc">
  <title id="title">Tijdlijn Kneden illustration</title>
  <desc id="desc">A playful green dinosaur bending a glowing amber timeline in a prehistoric scene.</desc>
  <rect width="320" height="390" rx="18" fill="#f7c36f"/>
  <rect width="320" height="390" rx="18" fill="url(#sky)"/>
  <path d="M0 312 C52 282 76 335 126 304 C177 272 202 326 320 284 L320 390 L0 390 Z" fill="#7a4a2e" opacity=".28"/>
  <path d="M40 270 C88 206 126 230 154 172 C181 116 228 112 278 70" fill="none" stroke="#fff7d6" stroke-width="24" stroke-linecap="round"/>
  <path d="M40 270 C88 206 126 230 154 172 C181 116 228 112 278 70" fill="none" stroke="#f8c957" stroke-width="12" stroke-linecap="round"/>
  <circle cx="72" cy="242" r="12" fill="#fff7d6"/>
  <circle cx="151" cy="178" r="12" fill="#fff7d6"/>
  <circle cx="234" cy="106" r="12" fill="#fff7d6"/>
  <path d="M121 256 C95 242 88 200 116 177 C140 158 181 166 195 198 C210 232 186 267 152 270" fill="#6fba6a" stroke="#251d17" stroke-width="8" stroke-linejoin="round"/>
  <path d="M179 174 C215 158 251 172 266 204 C229 202 204 214 192 244" fill="#6fba6a" stroke="#251d17" stroke-width="8" stroke-linejoin="round"/>
  <circle cx="149" cy="213" r="7" fill="#251d17"/>
  <path d="M109 288 C132 302 163 302 190 286" fill="none" stroke="#251d17" stroke-width="8" stroke-linecap="round"/>
  <path d="M98 153 C67 132 66 95 95 78 C125 60 167 85 158 126" fill="#9fd36d" stroke="#251d17" stroke-width="8"/>
  <path d="M100 118 C117 125 134 126 151 117" fill="none" stroke="#251d17" stroke-width="6" stroke-linecap="round"/>
  <defs>
    <linearGradient id="sky" x1="0" x2="0" y1="0" y2="1">
      <stop offset="0" stop-color="#ffe8a6"/>
      <stop offset=".54" stop-color="#df9848"/>
      <stop offset="1" stop-color="#bd7336"/>
    </linearGradient>
  </defs>
</svg>
