<svg xmlns="http://www.w3.org/2000/svg" viewBox="0 0 64 64" role="img" aria-label="Gevaar">
  <path d="M32 7c11 8 19 18 19 30 0 11-8 19-19 19S13 48 13 37C13 25 21 15 32 7Z" fill="#f26b2f" stroke="#432919" stroke-width="4" stroke-linejoin="round"/>
  <path d="M33 25c5 5 8 10 8 16 0 6-4 10-10 10-5 0-9-4-9-10 0-5 3-10 7-15l2 9 2-10Z" fill="#f7d36e" stroke="#432919" stroke-width="3" stroke-linejoin="round"/>
  <path d="M30 15c-4 4-7 8-9 13" fill="none" stroke="#fff7dc" stroke-width="4" stroke-linecap="round"/>
</svg>
