<svg xmlns="http://www.w3.org/2000/svg" viewBox="0 0 300 420" role="img" aria-labelledby="title desc">
  <title id="title">Exploding Dinos card back</title>
  <desc id="desc">A playful dinosaur card back with jungle green, amber accents, a paw emblem, and meteor sparks.</desc>
  <defs>
    <linearGradient id="bg" x1="0" y1="0" x2="1" y2="1">
      <stop offset="0" stop-color="#2f7d4f"/>
      <stop offset="0.48" stop-color="#246a47"/>
      <stop offset="1" stop-color="#174c35"/>
    </linearGradient>
    <linearGradient id="sun" x1="0" y1="0" x2="1" y2="1">
      <stop offset="0" stop-color="#f6c85d"/>
      <stop offset="1" stop-color="#d87b2f"/>
    </linearGradient>
    <pattern id="scalePattern" width="36" height="36" patternUnits="userSpaceOnUse">
      <path d="M18 4c9 0 16 7 16 16H2C2 11 9 4 18 4Z" fill="#fff7dc" opacity="0.11"/>
    </pattern>
    <filter id="softShadow" x="-20%" y="-20%" width="140%" height="140%">
      <feDropShadow dx="0" dy="8" stdDeviation="5" flood-color="#251d17" flood-opacity="0.28"/>
    </filter>
  </defs>

  <rect width="300" height="420" rx="24" fill="#251d17"/>
  <rect x="12" y="12" width="276" height="396" rx="18" fill="url(#bg)"/>
  <rect x="12" y="12" width="276" height="396" rx="18" fill="url(#scalePattern)"/>

  <path d="M32 58C82 26 120 29 151 57c36-25 75-25 117 0v305c-45 31-83 29-117 1-34 27-75 30-119 0Z" fill="#fff7dc" opacity="0.12"/>
  <path d="M44 75c39-23 73-20 107 8 34-28 68-31 105-7v267c-37 25-72 22-105-8-33 30-69 33-107 8Z" fill="none" stroke="#fff7dc" stroke-width="5" opacity="0.45"/>
  <path d="M62 92c32-15 61-11 89 12 29-23 58-27 87-12v235c-31 17-60 13-87-13-28 26-57 30-89 13Z" fill="none" stroke="#251d17" stroke-width="4" opacity="0.28"/>

  <g filter="url(#softShadow)">
    <circle cx="150" cy="210" r="82" fill="#fff7dc"/>
    <circle cx="150" cy="210" r="66" fill="url(#sun)"/>
    <circle cx="150" cy="210" r="52" fill="#fff7dc"/>
  </g>

  <g fill="#251d17">
    <ellipse cx="150" cy="228" rx="34" ry="28"/>
    <circle cx="113" cy="194" r="16"/>
    <circle cx="137" cy="176" r="16"/>
    <circle cx="163" cy="176" r="16"/>
    <circle cx="187" cy="194" r="16"/>
  </g>

  <path d="M88 137c15-26 41-43 71-43 39 0 72 27 80 63" fill="none" stroke="#251d17" stroke-width="10" stroke-linecap="round"/>
  <path d="M105 136c14-17 33-27 55-27 28 0 52 16 64 39" fill="none" stroke="#fff7dc" stroke-width="6" stroke-linecap="round" opacity="0.72"/>

  <g fill="#f6c85d" stroke="#251d17" stroke-width="5" stroke-linejoin="round">
    <path d="M65 51l8 17 19 2-14 12 4 19-17-10-17 10 4-19-14-12 19-2Z"/>
    <path d="M235 314l8 17 19 2-14 12 4 19-17-10-17 10 4-19-14-12 19-2Z"/>
  </g>
  <g fill="#d65a37" stroke="#251d17" stroke-width="4" stroke-linecap="round" stroke-linejoin="round">
    <path d="M230 62c16 9 24 20 25 34-14-1-26-8-36-22Z"/>
    <path d="M57 312c19 5 30 15 35 31-17 2-31-4-43-18Z"/>
  </g>

  <path d="M74 272c24 25 50 38 76 38s52-13 76-38" fill="none" stroke="#fff7dc" stroke-width="8" stroke-linecap="round" opacity="0.8"/>
  <path d="M85 288c19 18 41 27 65 27s46-9 65-27" fill="none" stroke="#251d17" stroke-width="5" stroke-linecap="round" opacity="0.32"/>

  <g fill="#fff7dc" opacity="0.72">
    <circle cx="50" cy="146" r="5"/>
    <circle cx="248" cy="150" r="5"/>
    <circle cx="64" cy="235" r="4"/>
    <circle cx="236" cy="238" r="4"/>
    <circle cx="109" cy="356" r="5"/>
    <circle cx="191" cy="356" r="5"/>
  </g>
</svg>
